<?xml version="1.0" encoding="UTF-8" standalone="no"?>
<!-- Created with Inkscape (http://www.inkscape.org/) -->

<svg
   xmlns:dc="http://purl.org/dc/elements/1.1/"
   xmlns:cc="http://creativecommons.org/ns#"
   xmlns:rdf="http://www.w3.org/1999/02/22-rdf-syntax-ns#"
   xmlns:svg="http://www.w3.org/2000/svg"
   xmlns="http://www.w3.org/2000/svg"
   xmlns:sodipodi="http://sodipodi.sourceforge.net/DTD/sodipodi-0.dtd"
   xmlns:inkscape="http://www.inkscape.org/namespaces/inkscape"
   width="16"
   height="16.000031"
   id="svg2"
   version="1.1"
   inkscape:version="0.48.2 r9819"
   sodipodi:docname="Logo.svg">
  <defs
     id="defs4" />
  <sodipodi:namedview
     id="base"
     pagecolor="#ffffff"
     bordercolor="#666666"
     borderopacity="1.0"
     inkscape:pageopacity="0.0"
     inkscape:pageshadow="2"
     inkscape:zoom="3.2623033"
     inkscape:cx="144.05847"
     inkscape:cy="-0.54701979"
     inkscape:document-units="px"
     inkscape:current-layer="g3160"
     showgrid="false"
     inkscape:window-width="1611"
     inkscape:window-height="1006"
     inkscape:window-x="0"
     inkscape:window-y="0"
     inkscape:window-maximized="0"
     fit-margin-top="0"
     fit-margin-left="0"
     fit-margin-right="0"
     fit-margin-bottom="0" />
  <metadata
     id="metadata7">
    <rdf:RDF>
      <cc:Work
         rdf:about="">
        <dc:format>image/svg+xml</dc:format>
        <dc:type
           rdf:resource="http://purl.org/dc/dcmitype/StillImage" />
        <dc:title />
      </cc:Work>
    </rdf:RDF>
  </metadata>
  <g
     inkscape:label="Layer 1"
     inkscape:groupmode="layer"
     id="layer1"
     transform="translate(-134.04989,-575.28168)">
    <g
       id="g3160"
       transform="translate(-87.033366,-132.89474)">
      <path
         style="fill:#b80000;fill-opacity:1"
         d="m 225.6148,724.15025 c -0.26344,-0.056 -0.58642,-0.36137 -0.76416,-0.72241 -0.14971,-0.30411 -0.26255,-0.77645 -0.28562,-1.1956 l -0.0195,-0.35377 -0.1958,-0.17495 c -0.70992,-0.63434 -1.28395,-1.37721 -1.69107,-2.18848 -0.37633,-0.74995 -0.59079,-1.44135 -0.7136,-2.30066 -0.0634,-0.44389 -0.0542,-1.59358 0.0163,-2.02643 0.19824,-1.21698 0.63877,-2.26376 1.36517,-3.24388 0.31042,-0.41885 1.02449,-1.13292 1.44334,-1.44334 1.54166,-1.14258 3.38275,-1.61799 5.31145,-1.37153 l 0.2663,0.034 0.0682,-0.0916 c 0.0375,-0.0504 0.1927,-0.21467 0.34485,-0.36508 0.68584,-0.67802 1.36871,-0.70611 1.98139,-0.0815 0.36861,0.37579 0.61557,0.87142 0.80769,1.62102 l 0.11087,0.43261 0.35475,0.33754 c 1.06693,1.01518 1.76853,2.22717 2.09839,3.62492 0.12372,0.52424 0.15044,0.81866 0.15023,1.65568 -2e-4,0.81326 -0.0342,1.14326 -0.17477,1.6979 -0.4532,1.78785 -1.54885,3.32133 -3.09358,4.32978 -0.69467,0.4535 -1.6352,0.83941 -2.44031,1.00127 -0.82996,0.16686 -1.8841,0.1854 -2.67025,0.0469 -0.67374,-0.11866 -0.58847,-0.12901 -0.77741,0.0944 -0.2173,0.25696 -0.49829,0.49442 -0.70457,0.59543 -0.18124,0.0887 -0.57664,0.13273 -0.78837,0.0877 z m 4.65582,-2.01104 c 0.44756,-0.0953 0.86169,-0.22798 1.2642,-0.4051 0.49928,-0.21971 1.28773,-0.72139 1.28773,-0.81936 0,-0.0247 -0.12048,-0.17032 -0.26773,-0.32365 l -0.26773,-0.2788 -0.35146,0.35245 c -0.29157,0.2924 -0.39502,0.37375 -0.60711,0.47746 -0.23256,0.11372 -0.27905,0.12501 -0.51465,0.12501 -0.20772,0 -0.28975,-0.0151 -0.41437,-0.0765 -0.33416,-0.16451 -0.61748,-0.56417 -0.76766,-1.0829 -0.0679,-0.23441 -0.0738,-0.31525 -0.0711,-0.96352 0.003,-0.63829 0.0108,-0.74004 0.0831,-1.03826 l 0.0802,-0.33062 -0.65279,-0.66651 c -0.49033,-0.50064 -0.66009,-0.65565 -0.68216,-0.62287 -0.0162,0.024 -0.039,0.12532 -0.0507,0.22516 -0.0472,0.40272 -0.22652,1.13427 -0.37577,1.53318 -0.058,0.155 -0.0789,0.17833 -0.18398,0.20573 -0.28453,0.0742 -2.94361,0.61378 -3.02457,0.61378 -0.0701,0 -0.10434,-0.0263 -0.1572,-0.12062 -0.20095,-0.35867 -0.43472,-1.14996 -0.54402,-1.84147 -0.0812,-0.51406 -0.0834,-1.97349 -0.004,-2.50082 0.0779,-0.5154 0.20328,-1.05229 0.33452,-1.43272 0.2026,-0.58729 0.19198,-0.53216 0.11704,-0.6071 l -0.067,-0.067 -0.1734,0.23717 c -0.59017,0.80726 -0.95103,1.69492 -1.10329,2.71392 -0.0638,0.42673 -0.0619,1.21414 0.004,1.66675 0.14338,0.98647 0.55228,1.97373 1.14119,2.75527 0.2612,0.34665 0.69737,0.80486 0.76612,0.80486 0.0302,0 0.68355,-0.13084 1.45198,-0.29075 0.76844,-0.15992 1.43335,-0.28657 1.47758,-0.28145 0.0787,0.009 0.0806,0.0159 0.0903,0.31488 0.0131,0.40486 -0.0423,0.86646 -0.15825,1.3163 -0.0521,0.20208 -0.0834,0.37856 -0.0697,0.39217 0.0137,0.0136 0.16251,0.0467 0.33057,0.0736 0.22584,0.0361 0.48602,0.0458 0.99713,0.0372 0.59284,-0.01 0.7474,-0.0235 1.08277,-0.0949 z m 3.62384,-2.29604 c 0.20483,-0.26619 0.41376,-0.62013 0.61427,-1.04063 0.36022,-0.75543 0.52615,-1.44138 0.55549,-2.29646 0.0357,-1.04151 -0.13926,-1.9006 -0.5726,-2.81099 -0.19636,-0.41252 -0.62501,-1.09645 -0.6872,-1.09645 -0.0218,0 -0.0508,0.16283 -0.0759,0.42589 -0.0477,0.50082 -0.16283,1.11506 -0.29489,1.57394 -0.10492,0.36455 -0.29947,0.88468 -0.36384,0.97271 -0.0342,0.0468 -0.32972,0.10113 -1.64019,0.30145 -0.87914,0.13439 -1.59843,0.25256 -1.59843,0.26259 0,0.01 0.31482,0.33257 0.6996,0.71674 l 0.6996,0.69849 0.8363,-0.12644 c 0.45996,-0.0695 0.88244,-0.13325 0.93884,-0.14157 0.16022,-0.0236 0.18272,0.0303 0.15632,0.37444 -0.0308,0.40167 -0.0928,0.74316 -0.21124,1.16374 l -0.0991,0.35179 0.42734,0.42822 c 0.23504,0.23552 0.43755,0.42822 0.45003,0.42822 0.0125,0 0.087,-0.0836 0.16557,-0.18568 z m -4.28518,-4.24333 c -0.26272,-0.78592 -0.33972,-1.39708 -0.31613,-2.50926 0.0169,-0.79464 0.0572,-1.15091 0.20132,-1.77856 0.074,-0.32218 0.20527,-0.78901 0.25541,-0.90823 0.045,-0.10688 -0.11413,-0.12882 -0.80327,-0.11076 -0.5212,0.0137 -0.71476,0.0322 -1.01975,0.0979 -0.49714,0.10709 -0.99395,0.27554 -1.40874,0.47767 l -0.33774,0.16458 0.193,0.0247 c 0.4153,0.0531 0.69289,0.21895 1.03748,0.61993 0.47595,0.55383 0.83933,1.58286 0.97261,2.75426 l 0.0348,0.30557 0.6501,0.65157 c 0.35755,0.35836 0.65439,0.63868 0.65964,0.62292 0.005,-0.0157 -0.0482,-0.20128 -0.1187,-0.41229 z"
         id="path3166"
         inkscape:connector-curvature="0" />
      <path
         style="fill:none;stroke:none"
         d="m 225.62198,724.14326 c -0.2911,-0.0891 -0.56604,-0.35461 -0.74654,-0.72096 -0.16472,-0.33429 -0.24895,-0.67356 -0.29548,-1.19012 l -0.0377,-0.41815 -0.28865,-0.25732 c -1.2111,-1.07966 -2.05555,-2.72096 -2.2755,-4.42275 -0.0592,-0.45776 -0.0496,-1.45294 0.0183,-1.89777 0.115,-0.75377 0.31962,-1.40634 0.66063,-2.10683 0.69504,-1.42775 1.85099,-2.58999 3.266,-3.28378 0.69457,-0.34054 1.38888,-0.55709 2.15509,-0.67215 0.39125,-0.0588 1.47815,-0.065 1.95085,-0.0113 l 0.32879,0.0374 0.0503,-0.0761 c 0.2009,-0.30393 0.57677,-0.64654 0.86317,-0.78678 0.53891,-0.26387 1.05857,-0.14211 1.51163,0.35421 0.22942,0.25133 0.36506,0.4748 0.5272,0.86858 0.11826,0.28723 0.31594,0.96329 0.3164,1.0821 1.3e-4,0.0293 0.21531,0.26812 0.47823,0.53073 0.67853,0.67775 1.09113,1.25364 1.47149,2.05384 0.31347,0.65946 0.54489,1.46123 0.62551,2.16706 0.0602,0.52686 0.0226,1.80034 -0.0652,2.20719 -0.16105,0.74673 -0.35271,1.30329 -0.65131,1.89136 -0.71552,1.40918 -1.83377,2.51286 -3.25005,3.20773 -1.3993,0.68653 -3.01668,0.89719 -4.55798,0.59368 -0.22052,-0.0434 -0.40945,-0.0683 -0.41985,-0.0553 -0.0104,0.013 -0.0833,0.10933 -0.16197,0.21405 -0.18209,0.24239 -0.47498,0.48666 -0.72202,0.60218 -0.21769,0.10179 -0.5726,0.14393 -0.7514,0.0892 z m 4.00011,-0.8475 c 1.031,-0.0482 2.2027,-0.42358 3.14883,-1.00884 0.93697,-0.57958 1.72958,-1.36752 2.31998,-2.30632 0.51597,-0.82044 0.88846,-1.89189 1.01171,-2.91013 0.0423,-0.3498 0.042,-1.21983 -5.9e-4,-1.59304 -0.33345,-2.92095 -2.43933,-5.32872 -5.28981,-6.04812 -1.25473,-0.31667 -2.64323,-0.27444 -3.86741,0.11763 -1.66983,0.5348 -3.0564,1.64818 -3.95734,3.17765 -0.45583,0.77383 -0.76087,1.66987 -0.89335,2.62418 -0.0746,0.5371 -0.0515,1.64881 0.0448,2.15509 0.56258,2.95877 2.79589,5.18689 5.72643,5.71314 0.35137,0.0631 1.09258,0.12184 1.30643,0.10355 0.0531,-0.005 0.25571,-0.0157 0.45031,-0.0248 z m -1.26917,-0.91974 c -0.96546,-0.13396 -1.86029,-0.46286 -2.61745,-0.96206 -1.56861,-1.03419 -2.53765,-2.61027 -2.75859,-4.48667 -0.0463,-0.39319 -0.021,-1.31663 0.0459,-1.67501 0.17105,-0.9166 0.47537,-1.67331 0.97018,-2.41241 0.25252,-0.3772 0.38092,-0.53073 0.44384,-0.53073 0.0581,0 8.61095,8.56398 8.61095,8.62212 0,0.0593 -0.3206,0.30782 -0.72372,0.56111 -0.65257,0.41005 -1.3672,0.68128 -2.21942,0.84236 -0.30371,0.0574 -1.44209,0.0842 -1.75165,0.0413 z m 1.23701,-0.0961 c 0.75806,-0.07 1.50976,-0.27846 2.15508,-0.59768 0.37551,-0.18575 1.06751,-0.63434 1.12392,-0.72857 0.0283,-0.0472 -0.0166,-0.10653 -0.27909,-0.36903 l -0.31276,-0.31277 -0.16908,0.19212 c -0.50222,0.57066 -0.85608,0.78494 -1.29869,0.78642 -0.39054,10e-4 -0.68438,-0.18668 -0.92896,-0.5943 -0.26384,-0.43973 -0.37549,-1.11182 -0.30953,-1.86321 0.0329,-0.37521 0.1179,-0.85088 0.17566,-0.98343 0.0278,-0.0637 -1.31468,-1.41206 -1.36012,-1.36608 -0.017,0.0172 -0.0536,0.1733 -0.0815,0.34696 -0.0979,0.611 -0.35423,1.56376 -0.43386,1.61298 -0.0152,0.009 -0.73306,0.16411 -1.59515,0.34376 l -1.56743,0.32663 -0.0598,-0.0773 c -0.0933,-0.12072 -0.31704,-0.7166 -0.4154,-1.10657 -0.15458,-0.6129 -0.19967,-0.9993 -0.21581,-1.84951 -0.025,-1.3177 0.11524,-2.19021 0.52862,-3.28845 0.057,-0.15149 0.0569,-0.15271 -0.0151,-0.22471 -0.0997,-0.0997 -0.13762,-0.0695 -0.41544,0.33211 -1.61294,2.33131 -1.3578,5.49619 0.61072,7.5758 0.24935,0.26342 0.26636,0.27515 0.37515,0.25885 0.0627,-0.009 0.74239,-0.14888 1.51048,-0.30998 1.00909,-0.21164 1.40618,-0.28315 1.43136,-0.25775 0.042,0.0424 0.0328,0.6383 -0.0157,1.01236 -0.0183,0.14152 -0.0706,0.40206 -0.11612,0.57897 -0.11974,0.46539 -0.12437,0.44323 0.10233,0.48972 0.45322,0.0929 1.05549,0.12069 1.57611,0.0726 z m -0.185,-6.32805 c -2.34846,-2.34851 -4.26992,-4.29419 -4.26992,-4.32375 0,-0.12651 0.68616,-0.60222 1.28662,-0.89199 1.31438,-0.63431 2.75551,-0.77995 4.18336,-0.42278 2.24258,0.56098 4.00839,2.39347 4.49579,4.66556 0.28799,1.34247 0.11016,2.77997 -0.49429,3.99576 -0.29695,0.59729 -0.74798,1.24721 -0.86553,1.24721 -0.0449,0 -1.43415,-1.36807 -4.33603,-4.27001 z m 4.47226,3.98856 c 0.35443,-0.44964 0.7504,-1.19693 0.93972,-1.77348 0.50437,-1.53599 0.38131,-3.17038 -0.34817,-4.62403 -0.19877,-0.3961 -0.6038,-1.00859 -0.66697,-1.00859 -0.0255,0 -0.0464,0.008 -0.0464,0.017 0,0.009 -0.0222,0.23009 -0.0493,0.49052 -0.0669,0.64214 -0.21148,1.33932 -0.38622,1.86234 -0.17702,0.52984 -0.25033,0.67923 -0.34485,0.70273 -0.0396,0.01 -0.75952,0.12425 -1.59984,0.25424 -1.14449,0.17705 -1.53724,0.22717 -1.56525,0.19974 -0.11588,-0.11345 -0.37331,-1.05278 -0.44198,-1.61272 -0.16589,-1.35261 -0.0603,-2.48332 0.37305,-3.99639 0.0275,-0.0961 0.029,-0.14663 0.005,-0.1706 -0.0545,-0.0545 -1.12898,-0.0434 -1.52306,0.0159 -0.36364,0.0546 -0.95651,0.20352 -1.23004,0.3089 -0.3261,0.12563 -0.86194,0.3969 -0.85079,0.43071 0.006,0.0188 0.1042,0.0425 0.21778,0.0526 0.39357,0.0352 0.60443,0.14398 0.93024,0.47991 0.54099,0.55781 0.92935,1.59242 1.06478,2.83672 l 0.0409,0.37587 1.4012,1.39952 1.4012,1.39952 0.78816,-0.12384 c 0.43349,-0.0681 0.86772,-0.12885 0.96496,-0.13496 l 0.17681,-0.0111 0.01,0.16857 c 0.0157,0.27206 -0.0813,0.90535 -0.20383,1.33103 l -0.1137,0.39504 0.42687,0.42775 c 0.23478,0.23527 0.45118,0.42775 0.4809,0.42775 0.0297,0 0.0968,-0.0543 0.14911,-0.12062 z"
         id="path3164"
         inkscape:connector-curvature="0" />
      <path
         style="fill:#20201f;fill-opacity:1;stroke:none"
         d="m 225.71399,724.14778 c -0.0265,-0.0146 -0.12467,-0.0599 -0.21808,-0.10055 -0.33915,-0.14762 -0.6366,-0.57883 -0.775,-1.12349 -0.0685,-0.26971 -0.14626,-0.91703 -0.11599,-0.966 0.0109,-0.0177 0.10034,0.0269 0.20247,0.10099 0.66229,0.48055 1.44323,0.87604 2.15301,1.09035 0.15836,0.0478 0.2332,0.0863 0.2332,0.12007 0,0.0816 -0.5789,0.6352 -0.7594,0.72619 -0.14815,0.0747 -0.53709,0.18575 -0.63375,0.18096 -0.021,-10e-4 -0.0599,-0.0139 -0.0865,-0.0285 z m 1.70477,-2.11215 c -0.6326,-0.18638 -1.16792,-0.44152 -1.72085,-0.8202 -0.42132,-0.28853 -0.58813,-0.43286 -0.54682,-0.4731 0.0177,-0.0172 0.6401,-0.15628 1.38312,-0.309 0.74302,-0.15272 1.38186,-0.28436 1.41965,-0.29252 0.10095,-0.0218 0.11139,0.0625 0.0737,0.59568 -0.0434,0.61426 -0.20864,1.38521 -0.29613,1.3814 -0.0216,-9.4e-4 -0.16234,-0.038 -0.31271,-0.0823 z m 3.001,-0.8932 c -0.59701,-0.28502 -0.91371,-1.18585 -0.81805,-2.32692 0.0365,-0.43495 0.11944,-0.9047 0.16904,-0.95695 0.0342,-0.0361 2.44066,2.35275 2.44066,2.42278 0,0.024 -0.14836,0.19173 -0.32969,0.37262 -0.42182,0.4208 -0.64087,0.53888 -1.03237,0.55652 -0.22764,0.0103 -0.2844,0.001 -0.42959,-0.068 z m 1.61595,-2.78498 c -0.40594,-0.40622 -0.73146,-0.7452 -0.72339,-0.75328 0.008,-0.008 0.36204,-0.0668 0.78658,-0.13062 0.42455,-0.0638 0.82842,-0.12449 0.8975,-0.13494 l 0.12559,-0.019 -0.0225,0.34755 c -0.0326,0.50491 -0.22839,1.42889 -0.30271,1.42889 -0.0127,0 -0.35516,-0.33237 -0.7611,-0.7386 z m -7.37544,0.58761 c -0.0909,-0.12909 -0.2786,-0.61789 -0.37439,-0.9748 -0.16431,-0.61226 -0.2183,-1.05105 -0.23546,-1.91385 -0.0176,-0.88613 0.0254,-1.42517 0.16753,-2.09778 0.12358,-0.58488 0.35177,-1.26351 0.42487,-1.26351 0.0143,0 0.8501,0.82419 1.85733,1.83154 l 1.83133,1.83154 -0.0395,0.29942 c -0.0763,0.57895 -0.3372,1.58797 -0.43774,1.69316 -0.0225,0.0235 -0.6978,0.17919 -1.50069,0.3459 -0.80289,0.16671 -1.49805,0.3111 -1.54479,0.32087 -0.0675,0.0141 -0.098,-7.7e-4 -0.14851,-0.0725 z m 5.14369,-2.96102 c -0.0568,-0.10851 -0.19721,-0.52517 -0.26014,-0.77203 -0.24203,-0.94944 -0.28057,-2.29665 -0.0968,-3.38427 0.0736,-0.43559 0.23547,-1.10308 0.32656,-1.34653 l 0.0641,-0.17147 0.1656,0.0222 c 0.26938,0.0362 0.90918,0.20548 1.20962,0.32013 0.56679,0.21629 1.17369,0.56273 1.62571,0.928 0.37034,0.29926 0.88455,0.83317 0.88455,0.91844 0,0.19623 -0.10879,1.06334 -0.17783,1.41743 -0.14009,0.71842 -0.4432,1.62115 -0.55575,1.65515 -0.0902,0.0273 -2.98596,0.46921 -3.07429,0.46921 -0.0453,0 -0.095,-0.0251 -0.11136,-0.0563 z m -2.99641,-2.83104 c -0.81375,-0.80962 -1.47955,-1.49483 -1.47955,-1.52269 0,-0.0279 0.11218,-0.13062 0.24928,-0.22837 0.43027,-0.30675 0.39187,-0.2921 0.7272,-0.27744 0.41956,0.0183 0.63095,0.12412 0.97459,0.4876 0.48435,0.51232 0.83689,1.37358 0.98971,2.41789 0.0834,0.57018 0.0856,0.59506 0.0509,0.59506 -0.0179,0 -0.6984,-0.66242 -1.51215,-1.47205 z m 6.52965,-2.69829 c -0.80061,-0.58451 -1.64887,-0.96425 -2.75819,-1.23477 -0.0864,-0.0211 -0.1367,-0.0514 -0.1367,-0.0823 0,-0.0269 0.13389,-0.18355 0.29753,-0.34802 0.23764,-0.23884 0.34899,-0.32422 0.55319,-0.42421 0.23325,-0.11421 0.27835,-0.12513 0.51465,-0.12461 0.22187,4.8e-4 0.28895,0.0148 0.46806,0.0996 0.40004,0.18955 0.7243,0.57204 0.97195,1.14648 0.14065,0.32623 0.32459,0.95365 0.30897,1.05388 -0.009,0.0607 -0.029,0.053 -0.21946,-0.086 z"
         id="path3162"
         inkscape:connector-curvature="0" />
    </g>
  </g>
</svg>
